<?xml version="1.0" encoding="UTF-8"?>
<svg width="256px" height="256px" viewBox="0 0 256 256" version="1.1" xmlns="http://www.w3.org/2000/svg" xmlns:xlink="http://www.w3.org/1999/xlink">
    <title>Artboard</title>
    <defs>
        <filter id="filter-1">
            <feColorMatrix in="SourceGraphic" type="matrix" values="0 0 0 0 0.996078 0 0 0 0 0.203922 0 0 0 0 0.466667 0 0 0 1.000000 0"></feColorMatrix>
        </filter>
    </defs>
    <g id="Artboard" stroke="none" stroke-width="1" fill="none" fill-rule="evenodd">
        <g id="noun_shape_734301" transform="translate(0.000000, 23.000000)" fill="#EEEFF1" fill-rule="nonzero">
            <path d="M1.96000766,47.9111276 L0.00591375525,160.350305 C-0.55239879,197.366173 38.5294794,221.57956 71.4699196,204.324042 L228.634901,122.777807 C255.992216,108.583753 263.529435,72.9594592 244.267652,49.0243868 L223.889244,23.6977405 C214.956244,12.5651487 201.835899,5.88559358 187.598929,5.32896399 L52.7664493,0.0409828891 C25.4091346,-1.07227629 2.23916394,20.6362777 1.96000766,47.9111276 Z" id="Path"></path>
            <path d="M1.96000766,47.9111276 L0.00591375525,160.350305 C-0.55239879,197.366173 38.5294794,221.57956 71.4699196,204.324042 L228.634901,122.777807 C255.992216,108.583753 263.529435,72.9594592 244.267652,49.0243868 L223.889244,23.6977405 C214.956244,12.5651487 201.835899,5.88559358 187.598929,5.32896399 L52.7664493,0.0409828891 C25.4091346,-1.07227629 2.23916394,20.6362777 1.96000766,47.9111276 Z" id="Path"></path>
        </g>
        <g id="Group" transform="translate(39.000000, 72.000000)" filter="url(#filter-1)">
            <g>
                <path d="M4.42222222,0.803719726 C1.95064222,0.803719726 0.0543933333,3.24281836 0,5.24207589 L0,142.831184 C0,145.154885 2.10674667,147.269318 4.42222222,147.26954 L77.3199022,147.26954 C82.51336,147.26954 87.0731133,147.978789 90.0337911,149.488718 C92.9938056,150.998425 94.59067,152.81571 95.1467644,156.770285 C95.5096078,158.799501 97.4458778,160.584608 99.5,160.584608 C101.554122,160.584608 103.490392,158.799501 103.853236,156.770285 C104.409551,152.81571 106.006416,150.998425 108.966209,149.488718 C111.926444,147.978789 116.48664,147.26954 121.680098,147.26954 L194.577778,147.26954 C196.893253,147.269318 199,145.154885 199,142.831184 L199,5.24207589 C199,2.9181526 196.893253,0.803719726 194.577778,0.803719726 L121.680098,0.803719726 C114.880047,0.803719726 108.458538,2.38399644 103.438431,6.07426767 C101.960303,7.16099918 100.641376,8.49516904 99.5,9.95782932 C98.3586244,8.49516904 97.0396967,7.16099918 95.5615689,6.07426767 C90.5414622,2.38399644 84.1199533,0.803719726 77.3199022,0.803719726 L4.42222222,0.803719726 Z M8.84444444,9.68043205 L77.3199022,9.68043205 C82.6946711,9.68043205 87.3525978,10.9921882 90.3791667,13.2171362 C93.4057356,15.442306 95.0777778,18.3265718 95.0777778,22.9955005 L95.0777778,142.206929 C89.5429244,139.266074 82.62281,138.416351 77.3199022,138.392827 L8.84444444,138.392827 L8.84444444,9.68043205 Z M121.680098,9.68043205 L190.155556,9.68043205 L190.155556,138.392827 L121.680098,138.392827 C114.972029,138.706397 109.032542,139.571655 103.922222,142.206929 L103.922222,22.9955005 C103.922222,18.3265718 105.594264,15.442306 108.620833,13.2171362 C111.647402,10.9921882 116.305329,9.68043205 121.680098,9.68043205 L121.680098,9.68043205 Z" id="Shape" fill="#000000" fill-rule="nonzero"></path>
            </g>
        </g>
        <text id="A" font-family="NunitoSans-SemiBold, Nunito Sans" font-size="52" font-weight="500" fill="#141F3F">
            <tspan x="69" y="145">A</tspan>
        </text>
        <text id="Z" font-family="NunitoSans-SemiBold, Nunito Sans" font-size="52" font-weight="500" fill="#141F3F">
            <tspan x="171" y="189">Z</tspan>
        </text>
    </g>
</svg>